<svg xmlns="http://www.w3.org/2000/svg" xmlns:xlink="http://www.w3.org/1999/xlink" id="Layer_1" x="0" y="0" enable-background="new 0 0 948.1 815.3" version="1.1" viewBox="0 0 948.1 815.3" xml:space="preserve"><g><path fill="#EEFFF9" stroke="#000" stroke-miterlimit="10" stroke-width="16" d="M785.7,565.6c0,0,152.4-80.7,142.6-200 c0,0-72,20.7-160.8,6.6C713.5,363.6,785.7,565.6,785.7,565.6z"/><path fill="#CCC" d="M834.8,521c-39.2,35-66.1,35.9-66.1,35.9c-8.9-20.3,23.5-156.9,4.7-174.6c0,0,25.5,3.1,61.4,3.7 C848.6,427.8,840.3,481.2,834.8,521z"/></g><g><path fill="#FFF" stroke="#000" stroke-miterlimit="10" stroke-width="16" d="M805.2,372.2c0,0,124.2-123.7,45.8-336.6 c0,0-38,158-223.4,199.4C574.3,246.9,805.2,372.2,805.2,372.2z"/><path fill="#CCC" d="M841.8,298c-21,48.2-37.6,59.9-37.6,59.9c-16.5-14.7-60.4-140.5-84.8-148.7c0,0,19.9-9.5,51.3-34.7 C800.7,206.7,824.5,258.6,841.8,298z"/></g><g><path fill="#FFF" stroke="#000" stroke-miterlimit="10" stroke-width="16" d="M704.9,181.7c0,0,0-120.3-60.5-148.4 c0,0-19,54.9-80.7,114.3C524.3,185.5,704.9,181.7,704.9,181.7z"/><path fill="#CCC" d="M690.3,128.3c3.7,16.2,4.6,37.2,4.6,37.2c-16.5-14.7-85.6-18.9-110-27.1c0,0,28-30.8,44.8-57.7 C641.3,87.4,671.5,107.6,690.3,128.3z"/></g><g><path fill="#EEFFF9" stroke="#000" stroke-miterlimit="10" stroke-width="16" d="M163.4,565.6c0,0-152.4-80.7-142.6-200 c0,0,72,20.7,160.8,6.6C235.6,363.6,163.4,565.6,163.4,565.6z"/><path fill="#CCC" d="M114.3,521c39.2,35,66.1,35.9,66.1,35.9c8.9-20.3-23.5-156.9-4.7-174.6c0,0-25.5,3.1-61.4,3.7 C100.5,427.8,108.8,481.2,114.3,521z"/></g><g><path fill="#FFF" stroke="#000" stroke-miterlimit="10" stroke-width="16" d="M143.9,372.2c0,0-124.2-123.7-45.8-336.6 c0,0,38,158,223.4,199.4C374.8,246.9,143.9,372.2,143.9,372.2z"/><path fill="#CCC" d="M107.3,298c21,48.2,37.6,59.9,37.6,59.9c16.5-14.7,60.4-140.5,84.8-148.7c0,0-19.9-9.5-51.3-34.7 C148.4,206.7,124.6,258.6,107.3,298z"/></g><g><path fill="#FFF" stroke="#000" stroke-miterlimit="10" stroke-width="16" d="M244.2,181.7c0,0,0-120.3,60.5-148.4 c0,0,19,54.9,80.7,114.3C424.8,185.5,244.2,181.7,244.2,181.7z"/><path fill="#CCC" d="M258.8,128.3c-3.7,16.2-4.6,37.2-4.6,37.2c16.5-14.7,85.6-18.9,110-27.1c0,0-28-30.8-44.8-57.7 C307.8,87.4,277.6,107.6,258.8,128.3z"/></g><circle cx="471" cy="440.1" r="345.4" fill="#B12" stroke="#000" stroke-miterlimit="10" stroke-width="16"/><g><path fill="#900" d="M806.6,462.3C797.9,627.5,661.2,759,470.5,759c-252.2,0-335.9-187.5-335.9-313.3 c17.7-128.6,227.2-55.5,330-55.5S806.6,305.1,806.6,462.3z"/><linearGradient id="SVGID_1_" x1="479.922" x2="479.922" y1="624.024" y2="761.378" gradientUnits="userSpaceOnUse"><stop offset="0" style="stop-color:#300"/><stop offset="1" style="stop-color:#200"/></linearGradient><path fill="url(#SVGID_1_)" d="M763.1,604.8C744.5,650.9,646,776.2,474.3,776.2c-158.8,0-241.7-91.9-277.6-140.6 c0-11.1,124.9,97.3,277.6,97.3C633.6,732.9,763.1,593.6,763.1,604.8z"/></g><g><path fill="#B00" d="M721.7,265.3c18.4,44.9-139.3,184.5-249.1,184.5S189.4,315.1,213,272.7c32.9-59,104.7-141.9,258-141.9 C645.5,130.8,704.9,224.2,721.7,265.3z"/><polygon fill="#A00" points="472.5 179.6 396.3 311.5 472.9 307 548.7 311.5"/><path fill="#A00" d="M487.5,335.3c0,8.4-6.8,15.1-15.1,15.1s-15.1-6.8-15.1-15.1c0-6.3-0.7-34.1,4.8-36.4 c1.8-0.8,8.3,3.3,10.4,3.3c1.6,0,5.4-6.5,6.9-6C485.3,298.2,487.5,328.6,487.5,335.3z"/></g><ellipse cx="463.8" cy="470.8" fill="#700" rx="122.6" ry="58"/><path fill="#600" d="M247.5,474.5c0,60.2-44.3,131.5-69.8,131.5s-50.2-69.5-50.2-129.7s0.8-129.7,26.2-129.7	S247.5,414.3,247.5,474.5z"/><path fill="#600" d="M693.9,467.8c0,60.2,44.3,131.5,69.8,131.5S814,529.8,814,469.6s-0.8-129.7-26.2-129.7	S693.9,407.6,693.9,467.8z"/><g id="svg_32"><linearGradient id="SVGID_2_" x1="302.211" x2="415.055" y1="312.847" y2="312.847" gradientTransform="matrix(0.3111 -0.4121 2.922 2.2063 -704.3167 -216.4215)" gradientUnits="userSpaceOnUse"><stop offset="0" style="stop-color:#ff3200"/><stop offset="1" style="stop-color:#ff3200;stop-opacity:0"/></linearGradient><polygon fill="url(#SVGID_2_)" points="414 348.3 373.5 401.9 234.2 296.7 274.7 243.1"/><linearGradient id="XMLID_6_" x1="250.407" x2="247.745" y1="289.431" y2="247.167" gradientTransform="matrix(0.9904 -0.1382 0.1382 0.9904 -45.3105 44.6367)" gradientUnits="userSpaceOnUse"><stop offset="0" style="stop-color:#ff3200"/><stop offset="1" style="stop-color:#ff3200;stop-opacity:0"/></linearGradient><path id="XMLID_1_" fill="url(#XMLID_6_)" d="M234.2,296.7l-31.1-24.3c0,0-10.2-8.8-10.1-8.9c13.1-17.4,64.3-33.5,81.7-20.4 L234.2,296.7z"/><linearGradient id="XMLID_7_" x1="534.965" x2="532.27" y1="426.983" y2="384.21" gradientTransform="matrix(-0.1382 -0.9904 -0.9904 0.1382 868.001 864.6948)" gradientUnits="userSpaceOnUse"><stop offset="0" style="stop-color:#ff3200"/><stop offset="1" style="stop-color:#ff3200;stop-opacity:0"/></linearGradient><path id="XMLID_2_" fill="url(#XMLID_7_)" d="M373.5,401.9l33.5,23.5c0,0,11.3,7.4,11.4,7.3c13.1-17.4,13-71.3-4.4-84.4 L373.5,401.9z"/><linearGradient id="SVGID_3_" x1="471.02" x2="583.864" y1="337.813" y2="337.813" gradientTransform="matrix(-0.3082 -0.4143 -2.9378 2.1852 1769.3667 -189.2249)" gradientUnits="userSpaceOnUse"><stop offset="0" style="stop-color:#ff3200"/><stop offset="1" style="stop-color:#ff3200;stop-opacity:0"/></linearGradient><polygon fill="url(#SVGID_3_)" points="521.7 352 561.8 405.9 701.8 301.7 661.7 247.8"/><linearGradient id="XMLID_8_" x1="376.68" x2="374.017" y1="292.434" y2="250.17" gradientTransform="matrix(-0.9894 -0.1453 -0.1453 0.9894 1108.4996 67.0856)" gradientUnits="userSpaceOnUse"><stop offset="0" style="stop-color:#ff3200"/><stop offset="1" style="stop-color:#ff3200;stop-opacity:0"/></linearGradient><path id="XMLID_4_" fill="url(#XMLID_8_)" d="M701.8,301.7l31.3-24.1c0,0,10.2-8.7,10.2-8.9c-13-17.5-64.1-33.9-81.6-20.9 L701.8,301.7z"/><linearGradient id="XMLID_9_" x1="531.962" x2="529.267" y1="300.711" y2="257.937" gradientTransform="matrix(0.1453 -0.9894 0.9894 0.1453 189.3122 880.5521)" gradientUnits="userSpaceOnUse"><stop offset="0" style="stop-color:#ff3200"/><stop offset="1" style="stop-color:#ff3200;stop-opacity:0"/></linearGradient><path id="XMLID_3_" fill="url(#XMLID_9_)" d="M561.8,405.9l-33.7,23.3c0,0-11.3,7.3-11.4,7.2c-13-17.5-12.5-71.4,5-84.4 L561.8,405.9z"/></g><g><radialGradient id="SVGID_4_" cx="249.729" cy="319.074" r="202.708" fx="354.576" fy="419.159" gradientTransform="matrix(0.8328 0.5536 -0.3986 0.5996 168.9413 -10.4872)" gradientUnits="userSpaceOnUse"><stop offset="0" style="stop-color:#a62b00"/><stop offset=".502" style="stop-color:#571c00"/><stop offset=".785" style="stop-color:#380000"/><stop offset="1" style="stop-color:#000"/></radialGradient><path fill="url(#SVGID_4_)" d="M432.8,418.2c20.1,4.6-91.6,103.1-185.8,69.6c-24.9-8.9-121.4-75-104-144.5 c8.2-32.6,44.2-122.3,51-108.7C223.7,293.7,356.5,400.8,432.8,418.2z"/><radialGradient id="SVGID_5_" cx="269.509" cy="394.517" r="49.953" fx="267.449" fy="393.113" gradientTransform="matrix(0.5038 0.2367 -0.2202 0.5284 182.5343 165.3595)" gradientUnits="userSpaceOnUse"><stop offset="0" style="stop-color:#571c00"/><stop offset=".883" style="stop-color:#571c00;stop-opacity:.1172"/><stop offset="1" style="stop-color:#571c00;stop-opacity:0"/></radialGradient><path fill="url(#SVGID_5_)" d="M261.8,430.9c0,11.5-30.5,40.6-45.1,22.9c-6.9-8.3-14.1-11.2-17.2-22.2 c-8.2-29.9,11.8-20.8,22.7-20.8S261.8,419.4,261.8,430.9z"/><radialGradient id="SVGID_6_" cx="549.162" cy="419.885" r="46.631" fx="547.24" fy="418.574" gradientTransform="matrix(0.5038 0.2367 -0.2202 0.5284 201.3036 100.5875)" gradientUnits="userSpaceOnUse"><stop offset="0" style="stop-color:#571c00"/><stop offset=".883" style="stop-color:#571c00;stop-opacity:.1172"/><stop offset="1" style="stop-color:#571c00;stop-opacity:0"/></radialGradient><path fill="url(#SVGID_6_)" d="M415.1,440.1c0,11.5-32.2,30.5-43.1,30.5s-19.6-9.3-19.6-20.8c0-11.5,8.8-20.8,19.6-20.8 S415.1,428.6,415.1,440.1z"/><g><radialGradient id="SVGID_7_" cx="626.585" cy="319.074" r="202.708" fx="731.431" fy="419.159" gradientTransform="matrix(-0.8328 0.5536 0.3986 0.5996 1087.0284 -219.1222)" gradientUnits="userSpaceOnUse"><stop offset="0" style="stop-color:#a62b00"/><stop offset=".502" style="stop-color:#571c00"/><stop offset=".785" style="stop-color:#380000"/><stop offset="1" style="stop-color:#000"/></radialGradient><path fill="url(#SVGID_7_)" d="M509.4,418.2c-20.1,4.6,91.6,103.1,185.8,69.6c24.9-8.9,121.4-75,104-144.5 c-8.2-32.6-44.2-122.3-51-108.7C718.5,293.7,585.6,400.8,509.4,418.2z"/><radialGradient id="SVGID_8_" cx="953.523" cy="394.517" r="49.953" fx="951.463" fy="393.113" gradientTransform="matrix(-0.5038 0.2367 0.2202 0.5284 1104.2147 3.4196)" gradientUnits="userSpaceOnUse"><stop offset="0" style="stop-color:#571c00"/><stop offset=".883" style="stop-color:#571c00;stop-opacity:.1172"/><stop offset="1" style="stop-color:#571c00;stop-opacity:0"/></radialGradient><path fill="url(#SVGID_8_)" d="M680.3,430.9c0,11.5,30.5,40.6,45.1,22.9c6.9-8.3,14.1-11.2,17.2-22.2 c8.2-29.9-11.8-20.8-22.7-20.8S680.3,419.4,680.3,430.9z"/><radialGradient id="SVGID_9_" cx="1233.176" cy="419.885" r="46.631" fx="1231.253" fy="418.574" gradientTransform="matrix(-0.5038 0.2367 0.2202 0.5284 1085.4454 -61.3523)" gradientUnits="userSpaceOnUse"><stop offset="0" style="stop-color:#571c00"/><stop offset=".883" style="stop-color:#571c00;stop-opacity:.1172"/><stop offset="1" style="stop-color:#571c00;stop-opacity:0"/></radialGradient><path fill="url(#SVGID_9_)" d="M527,440.1c0,11.5,32.2,30.5,43.1,30.5s19.6-9.3,19.6-20.8c0-11.5-8.8-20.8-19.6-20.8 S527,428.6,527,440.1z"/></g></g><g><g><g><linearGradient id="SVGID_10_" x1="203.321" x2="283.284" y1="260.214" y2="372.283" gradientUnits="userSpaceOnUse"><stop offset="0" style="stop-color:#ff1200"/><stop offset=".159" style="stop-color:#ff4c00"/><stop offset=".725" style="stop-color:#ff0"/><stop offset="1" style="stop-color:#ee0"/></linearGradient><path fill="url(#SVGID_10_)" d="M421.2,416.4c-33.2,9.8-72.1,11.5-111.4,4.7c-39.9-7-60.9-6.2-104-22.7 c-56.6-21.7-23.9-105.5,2-141.4C207.7,257.1,302,370,421.2,416.4z"/><circle cx="262" cy="346" r="14.3" fill="#FFF"/><circle cx="237.1" cy="367.2" r="7" fill="#FFF"/><linearGradient id="SVGID_11_" x1="327.075" x2="358.409" y1="341.071" y2="472.828" gradientTransform="matrix(-0.4046 0.9145 -0.9145 -0.4046 919.4417 267.2137)" gradientUnits="userSpaceOnUse"><stop offset=".564" style="stop-color:#f60"/><stop offset=".641" style="stop-color:#ff6a00;stop-opacity:.8237"/><stop offset=".716" style="stop-color:#fd7600;stop-opacity:.6525"/><stop offset=".789" style="stop-color:#fb8900;stop-opacity:.4833"/><stop offset=".863" style="stop-color:#f7a500;stop-opacity:.3153"/><stop offset=".935" style="stop-color:#f3c800;stop-opacity:.1497"/><stop offset="1" style="stop-color:#ee0;stop-opacity:0"/></linearGradient><path fill="url(#SVGID_11_)" d="M334.3,424.3c3.2-11.8,13.8-34.9,16.5-41c9.9,5.6,28.6,18.8,58.9,32.6 C387.4,424.3,355.4,424.3,334.3,424.3z"/><linearGradient id="SVGID_12_" x1="272.423" x2="304.053" y1="375.647" y2="383.587" gradientUnits="userSpaceOnUse"><stop offset=".038" style="stop-color:#ee0"/><stop offset=".045" style="stop-color:#efef09"/><stop offset=".074" style="stop-color:#f3f328"/><stop offset=".107" style="stop-color:#f7f744"/><stop offset=".143" style="stop-color:#fafa5a"/><stop offset=".187" style="stop-color:#fcfc6b"/><stop offset=".24" style="stop-color:#fefe76"/><stop offset=".315" style="stop-color:#ffff7d"/><stop offset=".523" style="stop-color:#ffff7f"/><stop offset=".717" style="stop-color:#ffff7d"/><stop offset=".787" style="stop-color:#fefe76"/><stop offset=".837" style="stop-color:#fcfc6b"/><stop offset=".878" style="stop-color:#fafa5a"/><stop offset=".912" style="stop-color:#f7f744"/><stop offset=".943" style="stop-color:#f4f429"/><stop offset=".97" style="stop-color:#f0f009"/><stop offset=".973" style="stop-color:#efef05"/></linearGradient><path fill="url(#SVGID_12_)" d="M293,415.5c12.9,4.9,24.4-51.9,19.4-55.3c-5.8-4-18.6-11.6-27.6-19.1 c-6.4-5.3-28.7,68.3-22.8,69.6C267.9,412,286.1,412.9,293,415.5z"/><linearGradient id="SVGID_13_" x1="462.93" x2="466.178" y1="215.292" y2="265.671" gradientTransform="matrix(-0.7232 -0.6906 0.6906 -0.7232 367.8151 889.3334)" gradientUnits="userSpaceOnUse"><stop offset="0" style="stop-color:#ff3400"/><stop offset=".984" style="stop-color:#ff3400;stop-opacity:1.569295e-02"/><stop offset="1" style="stop-color:#ff3400;stop-opacity:0"/></linearGradient><path fill="url(#SVGID_13_)" d="M179.6,332.9c1.7-10.7,71.4,70.5,76.2,75.1c4.8,4.6-23.8-2.3-37.5-6.2 C191.2,390,182.9,381,179,367.6C175,358.7,178.1,342.2,179.6,332.9z"/><path fill="none" stroke="#000" stroke-miterlimit="10" stroke-width="8" d="M421.2,416.4c-33.2,9.8-72.1,11.5-111.4,4.7 c-39.9-7-60.9-6.2-104-22.7c-56.6-21.7-23.9-105.5,2-141.4C207.7,257.1,302,370,421.2,416.4z"/><path d="M314.8,348.6c14.4,14.6,68,47,97.8,55.1c20.6,5.6,25,13.6,19.2,14.1c-24.4,2.1-70.1-13.4-126.7-57 c-57.3-44.1-108-98.6-111.1-103.8c3.3-5,6.1-8.9,11.4-11.5c6.6,5.9,27.4,26.7,48,50.7C285.4,333.6,301,334.7,314.8,348.6z"/></g><path d="M173.1,372.5c10.1,9.2,39.7,26.3,38.1,28c-5.9,6.1-36.3-11.4-39.5-13.7c-17.4-12.5-10.8-23.5-8.5-23.5 S170.2,369.8,173.1,372.5z"/></g><g><path d="M765.2,369.5c-10.1,9.2-39.7,26.3-38.1,28c5.9,6.1,36.3-11.4,39.5-13.7c17.4-12.5,10.8-23.5,8.5-23.5 S768.1,366.8,765.2,369.5z"/><g><linearGradient id="SVGID_14_" x1="535.275" x2="615.238" y1="260.214" y2="372.283" gradientTransform="matrix(-1 0 0 1 1273.307 0)" gradientUnits="userSpaceOnUse"><stop offset="0" style="stop-color:#ff1200"/><stop offset=".159" style="stop-color:#ff4c00"/><stop offset=".725" style="stop-color:#ff0"/><stop offset="1" style="stop-color:#ee0"/></linearGradient><path fill="url(#SVGID_14_)" d="M520.2,416.4c33.2,9.8,72.1,11.5,111.4,4.7c39.9-7,60.9-6.2,104-22.7 c56.6-21.7,23.9-105.5-2-141.4C733.6,257.1,639.4,370,520.2,416.4z"/><circle cx="679.4" cy="346" r="14.3" fill="#FFF"/><circle cx="704.3" cy="367.2" r="7" fill="#FFF"/><linearGradient id="SVGID_15_" x1="192.752" x2="224.086" y1="37.507" y2="169.264" gradientTransform="matrix(0.4046 0.9145 0.9145 -0.4046 353.8653 267.2137)" gradientUnits="userSpaceOnUse"><stop offset=".564" style="stop-color:#f60"/><stop offset=".641" style="stop-color:#ff6a00;stop-opacity:.8237"/><stop offset=".716" style="stop-color:#fd7600;stop-opacity:.6525"/><stop offset=".789" style="stop-color:#fb8900;stop-opacity:.4833"/><stop offset=".863" style="stop-color:#f7a500;stop-opacity:.3153"/><stop offset=".935" style="stop-color:#f3c800;stop-opacity:.1497"/><stop offset="1" style="stop-color:#ee0;stop-opacity:0"/></linearGradient><path fill="url(#SVGID_15_)" d="M607,424.3c-3.2-11.8-13.8-34.9-16.5-41c-9.9,5.6-28.6,18.8-58.9,32.6 C554,424.3,585.9,424.3,607,424.3z"/><linearGradient id="SVGID_16_" x1="604.377" x2="636.007" y1="375.647" y2="383.587" gradientTransform="matrix(-1 0 0 1 1273.307 0)" gradientUnits="userSpaceOnUse"><stop offset=".038" style="stop-color:#ee0"/><stop offset=".045" style="stop-color:#efef09"/><stop offset=".074" style="stop-color:#f3f328"/><stop offset=".107" style="stop-color:#f7f744"/><stop offset=".143" style="stop-color:#fafa5a"/><stop offset=".187" style="stop-color:#fcfc6b"/><stop offset=".24" style="stop-color:#fefe76"/><stop offset=".315" style="stop-color:#ffff7d"/><stop offset=".523" style="stop-color:#ffff7f"/><stop offset=".717" style="stop-color:#ffff7d"/><stop offset=".787" style="stop-color:#fefe76"/><stop offset=".837" style="stop-color:#fcfc6b"/><stop offset=".878" style="stop-color:#fafa5a"/><stop offset=".912" style="stop-color:#f7f744"/><stop offset=".943" style="stop-color:#f4f429"/><stop offset=".97" style="stop-color:#f0f009"/><stop offset=".973" style="stop-color:#efef05"/></linearGradient><path fill="url(#SVGID_16_)" d="M648.4,415.5c-12.9,4.9-24.4-51.9-19.4-55.3c5.8-4,18.6-11.6,27.6-19.1 c6.4-5.3,28.7,68.3,22.8,69.6C673.5,412,655.3,412.9,648.4,415.5z"/><linearGradient id="SVGID_17_" x1="222.861" x2="226.109" y1="444.552" y2="494.932" gradientTransform="matrix(0.7232 -0.6906 -0.6906 -0.7232 905.4919 889.3334)" gradientUnits="userSpaceOnUse"><stop offset="0" style="stop-color:#ff3400"/><stop offset=".984" style="stop-color:#ff3400;stop-opacity:1.569295e-02"/><stop offset="1" style="stop-color:#ff3400;stop-opacity:0"/></linearGradient><path fill="url(#SVGID_17_)" d="M761.8,332.9c-1.7-10.7-71.4,70.5-76.2,75.1c-4.8,4.6,23.8-2.3,37.5-6.2 c27.1-11.8,35.4-20.8,39.3-34.2C766.4,358.7,763.3,342.2,761.8,332.9z"/><path fill="none" stroke="#000" stroke-miterlimit="10" stroke-width="8" d="M520.2,416.4c33.2,9.8,72.1,11.5,111.4,4.7 c39.9-7,60.9-6.2,104-22.7c56.6-21.7,23.9-105.5-2-141.4C733.6,257.1,639.4,370,520.2,416.4z"/><path d="M626.6,348.6c-14.4,14.6-68,47-97.8,55.1c-20.6,5.6-25,13.6-19.2,14.1c24.4,2.1,70.1-13.4,126.7-57 c57.3-44.1,108-98.6,111.1-103.8c-3.3-5-6.1-8.9-11.4-11.5c-6.6,5.9-27.4,26.7-48,50.7C655.9,333.6,640.4,334.7,626.6,348.6z"/></g></g></g><circle cx="471" cy="440.1" r="345.4" fill="none" stroke="#000" stroke-miterlimit="10" stroke-width="16"/><g><path d="M776.9,573.8c0,216.2-114.7,90.9-306.5,90.9c-164.1,0-302,132.2-302-90.9c0-197.1,196.5-89.5,302-89.5 C585.5,484.3,776.9,373.6,776.9,573.8z"/><path fill="#FFF" d="M467.9,498.3c1.7,25.2-4.1,44.2-15.7,52.7c-14.6,10.6-60.9,11.2-66.5-16.2c-3.9-19.1-0.9-33,1.5-49.9 C409.7,488.7,430.2,498.3,467.9,498.3z"/><path fill="#FFF" d="M370.6,481c1.7,25.2-1.1,45.8-12.6,54.3c-14.6,10.6-46.1,7.8-48.2-20.1c-2-26.9-1.8-32.7,0.7-49.6 C338.1,472,335.6,475,370.6,481z"/><path fill="#FFF" d="M299.2,460.8c0.8,28.6-2.2,68.3-11.2,72.3c-10.4,4.5-19-2.3-37-24.1c-13.3-16.1-19.8-22-17.4-38.9 C268.2,451.8,278.3,450.6,299.2,460.8z"/><path fill="#FFF" d="M457.8,637.3c-15.6,0-14.8-1.1-31.1-1.1s-14.9,1.9-31.1,3.5c0-10.5,2.8-33.6,27.5-33.6 C460.6,606.1,457.8,621.6,457.8,637.3z"/><path fill="#FFF" d="M373.2,641.2c-12.5,7.6-23,8.4-40.9,13.2c-15.7,4.2-14.9,4-32.9,7.6c0-10.5,5.5-55.8,41-55.8 C376,606.1,373.2,625.5,373.2,641.2z"/><path fill="#FFF" d="M284.9,664.9c-18.2,3.1-8,2.6-35.9,7.1c-16,2.6-16.9,3.7-35.3,3.7c-5.2-31.9,22.7-63.9,47-63.9 C283.6,611.9,284.9,649.2,284.9,664.9z"/><path fill="#CCC" d="M296.8,509.7c-2.4,13.7-4.3,24.7-13.6,24.7c-12.3,1.3-23.3-15-29.2-21.9c0,0,11.7,1.2,21.9,1.2 S296.8,509.7,296.8,509.7z"/><path fill="#CCC" d="M369.5,513.1c-2.4,13.7-8.6,27.9-29.4,27.8c-31.7,0-30.8-24.7-30.8-31.2c0,0,17.6,4.5,27.8,4.5 C347.4,514.2,369.5,513.1,369.5,513.1z"/><path fill="#CCC" d="M465.7,528.4c-5.3,24.3-21,29.5-41.7,29.4c-31.7,0-39.4-16.7-40.2-33.5c0,0,16.7,10.2,38,11.4 C448.4,537.2,465.7,528.4,465.7,528.4z"/><path fill="#FFF" d="M483.1,498.3c-1.7,25.2,4.1,44.2,15.7,52.7c14.6,10.6,60.9,11.2,66.5-16.2c3.9-19.1,0.9-33-1.5-49.9 C541.3,488.7,520.8,498.3,483.1,498.3z"/><path fill="#FFF" d="M580.4,481c-1.7,25.2,1.1,45.8,12.6,54.3c14.6,10.6,46.1,7.8,48.2-20.1c2-26.9,1.8-32.7-0.7-49.6 C612.9,472,615.4,475,580.4,481z"/><path fill="#FFF" d="M651.7,460.8c-0.8,28.6,2.2,68.3,11.2,72.3c10.4,4.5,19-2.3,37-24.1c13.3-16.1,19.8-22,17.4-38.9 C682.8,451.8,672.7,450.6,651.7,460.8z"/><path fill="#CCC" d="M654.2,509.7c2.4,13.7,4.3,24.7,13.6,24.7c12.3,1.3,23.3-15,29.2-21.9c0,0-11.7,1.2-21.9,1.2 C664.9,513.6,654.2,509.7,654.2,509.7z"/><path fill="#CCC" d="M581.5,513.1c2.4,13.7,8.6,27.9,29.4,27.8c31.7,0,30.8-24.7,30.8-31.2c0,0-17.6,4.5-27.8,4.5 S581.5,513.1,581.5,513.1z"/><path fill="#CCC" d="M485.3,528.4c5.3,24.3,21,29.5,41.7,29.4c31.7,0,39.4-16.7,40.2-33.5c0,0-16.7,10.2-38,11.4 C502.6,537.2,485.3,528.4,485.3,528.4z"/><path fill="#CCC" d="M284.9,664.9c0.6-5.6-0.1-7.9-0.1-7.9c-18.5-2.2-63.1-2.7-69.9-2.7c0,0-3.7,12.8-1.2,21.4 c14.8,1.3,20.6-2.5,35.3-3.7C261.9,670.9,271.5,667.7,284.9,664.9z"/><path fill="#CCC" d="M373.2,641.2c0.6-5.6,0-2.8,0-2.8c-18.5-2.2-65.2,8.4-72.1,8.4c0,0-1.8,6.2-1.8,15.2 c15.8-2.1,26.8-6.9,41.3-9.7C353.1,649.9,363.3,647.4,373.2,641.2z"/><path fill="#CCC" d="M457.8,637.3c0.6-5.6,0-8.8,0-8.8c-18.5-2.2-54.4,0.9-61.3,0.9c0,0-0.9,1.3-0.9,10.3 c15.8-2.1,14.6-2.8,29.3-3.5C436.9,635.6,443.2,637.7,457.8,637.3z"/><path fill="#FFF" d="M488.8,637.1c15.6,0,14.8-1.1,31.1-1.1c16.2,0,14.9,1.9,31.1,3.5c0-10.5-2.8-33.6-27.5-33.6 C486,605.9,488.8,621.4,488.8,637.1z"/><path fill="#FFF" d="M573.4,641.1c12.5,7.6,23,8.4,40.9,13.2c15.7,4.2,14.9,4,32.9,7.6c0-10.5-5.5-55.8-41-55.8 C570.6,605.9,573.4,625.4,573.4,641.1z"/><path fill="#FFF" d="M661.8,664.8c18.2,3.1,8,2.6,35.9,7.1c16,2.6,16.9,3.7,35.3,3.7c5.2-31.9-22.7-63.9-47-63.9 C663.1,611.7,661.8,649.1,661.8,664.8z"/><path fill="#CCC" d="M661.8,664.8c-0.6-5.6,0.1-7.9,0.1-7.9c18.5-2.2,63.1-2.7,69.9-2.7c0,0,3.7,12.8,1.2,21.4 c-14.8,1.3-20.6-2.5-35.3-3.7C684.7,670.7,675.1,667.6,661.8,664.8z"/><path fill="#CCC" d="M573.4,641.1c-0.6-5.6,0-2.8,0-2.8c18.5-2.2,65.2,8.4,72,8.4c0,0,1.8,6.2,1.8,15.2 c-15.8-2.1-26.8-6.9-41.3-9.7C593.5,649.7,583.3,647.2,573.4,641.1z"/><path fill="#CCC" d="M488.8,637.1c-0.6-5.6,0-8.8,0-8.8c18.5-2.2,54.4,0.9,61.3,0.9c0,0,0.9,1.3,0.9,10.3 c-15.8-2.1-14.6-2.8-29.3-3.5C509.7,635.4,503.4,637.6,488.8,637.1z"/></g></svg>